<?xml version="1.0" encoding="UTF-8" standalone="no"?>
<svg
   xmlns:dc="http://purl.org/dc/elements/1.1/"
   xmlns:cc="http://creativecommons.org/ns#"
   xmlns:rdf="http://www.w3.org/1999/02/22-rdf-syntax-ns#"
   xmlns:svg="http://www.w3.org/2000/svg"
   xmlns="http://www.w3.org/2000/svg"
   version="1.1"
   id="svg1158"
   width="24"
   height="24"
   viewBox="0 0 24 24">
  <metadata
     id="metadata1164">
    <rdf:RDF>
      <cc:Work
         rdf:about="">
        <dc:format>image/svg+xml</dc:format>
        <dc:type
           rdf:resource="http://purl.org/dc/dcmitype/StillImage" />
        <dc:title></dc:title>
      </cc:Work>
    </rdf:RDF>
  </metadata>
  <defs
     id="defs1162" />
  <g
     id="g1166"
     style="display:inline;opacity:1">
    <path
       id="path935"
       style="fill:#ffffff;fill-opacity:1;stroke-width:0.176159;stroke-opacity:0.933333"
       d="M 12,0 A 11.999969,11.999983 0 0 0 0,11.999955 11.999969,11.999983 0 0 0 12,24 11.999969,11.999983 0 0 0 24,11.999955 11.999969,11.999983 0 0 0 12,0 Z m -0.256537,5.4681447 c 0.0066,-1.04e-5 0.01318,-1.04e-5 0.01977,0 2.232857,4.66e-5 4.298346,1.1491954 5.427166,3.019433 V 6.576383 h 1.32559 v 2.7940187 h 0.0012 v 0.5668091 c 3.9e-5,0.3299132 -0.218919,0.6198942 -0.536577,0.7106252 -0.349285,0.02424 -1.199985,0.01793 -1.352555,0.02847 H 14.35157 V 9.3703987 h 1.796847 c -0.86501,-1.597901 -2.558947,-2.5968489 -4.403662,-2.5968956 -0.0037,-4.2e-6 -0.0075,-4.2e-6 -0.01121,0 -2.7492999,0.00605 -4.9747772,2.1935156 -4.9747654,4.8897839 4.7e-6,0.04497 6.418e-4,0.08995 0.00191,0.134903 H 5.4770871 c -0.0028,-0.07444 -0.0042,-0.148924 -0.0042,-0.223413 -1.27e-5,-3.3651113 2.804231,-6.0960447 6.2705659,-6.1066353 z m 5.485926,6.5204393 h 1.283593 c 0.0028,0.07444 0.0042,0.148923 0.0042,0.223413 1.3e-5,3.36511 -2.804231,6.096044 -6.270566,6.106634 -0.0066,10e-6 -0.01318,10e-6 -0.01977,0 -2.2328579,-4.7e-5 -4.2983465,-1.149195 -5.4271663,-3.019432 v 1.911194 H 5.4740819 v -2.794018 h -0.00118 v -0.566809 c -3.92e-5,-0.329913 0.2189192,-0.619895 0.5365769,-0.710627 0.3492844,-0.02423 1.1999848,-0.01793 1.3525549,-0.02847 h 2.2764874 v 1.305908 H 7.8416689 c 0.8650102,1.5979 2.5589481,2.596849 4.4036621,2.596895 0.0037,5e-6 0.0075,5e-6 0.01121,0 2.749301,-0.0061 4.974777,-2.193515 4.974765,-4.889783 -4e-6,-0.04497 -6.41e-4,-0.08995 -0.0019,-0.134903 z" />
  </g>
  <g
     id="layer1"
     style="display:inline" />
</svg>
